<svg xmlns="http://www.w3.org/2000/svg" viewBox="0 0 400 400">
  <!-- Full-bleed circle -->
  <circle cx="200" cy="200" r="200" fill="white"/>

  <!-- Waves -->
  <path d="M0 110 C60 80 120 140 200 110 S340 80 400 110"
        fill="none" stroke="#2563eb" stroke-width="14" stroke-linecap="round" opacity="1"/>

  <path d="M0 160 C60 130 120 190 200 160 S340 130 400 160"
        fill="none" stroke="#2563eb" stroke-width="14" stroke-linecap="round" opacity="1"/>

  <path d="M0 210 C60 180 120 240 200 210 S340 180 400 210"
        fill="none" stroke="#2563eb" stroke-width="14" stroke-linecap="round" opacity="1"/>

  <path d="M0 260 C60 230 120 290 200 260 S340 230 400 260"
        fill="none" stroke="#2563eb" stroke-width="14" stroke-linecap="round" opacity="1"/>

  <path d="M0 310 C60 280 120 340 200 310 S340 280 400 310"
        fill="none" stroke="#2563eb" stroke-width="14" stroke-linecap="round" opacity="1"/>
</svg>
