<svg xmlns="http://www.w3.org/2000/svg" viewBox="0 0 400 400">
  <!-- Full-bleed circle -->
  <circle cx="200" cy="200" r="200" fill="white"/>

  <!-- Waves -->
  <path d="M0 90  C80 50 160 130 240 90  S360 50 400 90"
        fill="none" stroke="#2563eb" stroke-width="18" stroke-linecap="round"/>

  <path d="M0 150 C80 110 160 190 240 150 S360 110 400 150"
        fill="none" stroke="#2563eb" stroke-width="18" stroke-linecap="round"/>

  <path d="M0 210 C80 170 160 250 240 210 S360 170 400 210"
        fill="none" stroke="#2563eb" stroke-width="18" stroke-linecap="round"/>

  <path d="M0 270 C80 230 160 310 240 270 S360 230 400 270"
        fill="none" stroke="#2563eb" stroke-width="18" stroke-linecap="round"/>

  <path d="M0 330 C80 290 160 370 240 330 S360 290 400 330"
        fill="none" stroke="#2563eb" stroke-width="18" stroke-linecap="round"/>
</svg>
