<svg xmlns="http://www.w3.org/2000/svg" viewBox="0 0 420 120" preserveAspectRatio="xMidYMid meet">
  <g class="waves" fill="none" stroke="#2563eb" stroke-width="2" stroke-linecap="round">
    <path class="wave wave-1" d="M0 34 C35 22 70 46 105 34 S175 22 210 34 S280 22 315 34 S385 22 420 34" />
    <path class="wave wave-2" d="M0 52 C35 42 70 58 105 52 S175 42 210 52 S280 42 315 52 S385 42 420 52" />
    <path class="wave wave-3" d="M0 70 C35 60 70 80 105 70 S175 60 210 70 S280 60 315 70 S385 60 420 70" />
    <path class="wave wave-4" d="M0 88 C35 76 70 96 105 88 S175 76 210 88 S280 76 315 88 S385 76 420 88" />
    <path class="wave wave-5" d="M0 106 C35 92 70 112 105 106 S175 92 210 106 S280 92 315 106 S385 92 420 106" />
  </g>
  <g class="note-group" fill="#2563eb" opacity="0">
    <circle class="note note-1" cx="78" cy="76" r="3" />
    <circle class="note note-2" cx="170" cy="68" r="3" />
    <circle class="note note-3" cx="260" cy="82" r="3" />
    <circle class="note note-4" cx="330" cy="60" r="3" />
  </g>
</svg>
